<svg width="152" height="24" viewBox="0 0 152 24" fill="none" xmlns="http://www.w3.org/2000/svg">
<path d="M6.70312 23.3125C5.56771 23.3125 4.52083 23.0208 3.5625 22.4375C2.61458 21.8542 1.85417 21.0781 1.28125 20.1094C0.71875 19.1302 0.4375 18.0573 0.4375 16.8906V15.4219C0.4375 15.3073 0.489583 15.25 0.59375 15.25H4.1875C4.27083 15.25 4.3125 15.3073 4.3125 15.4219V16.8906C4.3125 17.5885 4.54688 18.1927 5.01562 18.7031C5.48438 19.2031 6.04688 19.4531 6.70312 19.4531C7.36979 19.4531 7.9375 19.1979 8.40625 18.6875C8.875 18.1667 9.10938 17.5677 9.10938 16.8906C9.10938 16.1094 8.59896 15.4271 7.57812 14.8438C7.41146 14.7396 7.19271 14.6146 6.92188 14.4688C6.66146 14.3125 6.34896 14.1354 5.98438 13.9375C5.61979 13.7396 5.26562 13.5469 4.92188 13.3594C4.57812 13.1615 4.24479 12.974 3.92188 12.7969C2.75521 12.1094 1.88542 11.25 1.3125 10.2188C0.75 9.17708 0.46875 8.01042 0.46875 6.71875C0.46875 5.53125 0.760417 4.45833 1.34375 3.5C1.92708 2.55208 2.6875 1.80208 3.625 1.25C4.57292 0.6875 5.59896 0.40625 6.70312 0.40625C7.83854 0.40625 8.88021 0.6875 9.82812 1.25C10.776 1.82292 11.5312 2.58333 12.0938 3.53125C12.6667 4.47917 12.9531 5.54167 12.9531 6.71875V9.34375C12.9531 9.42708 12.9115 9.46875 12.8281 9.46875H9.23438C9.15104 9.46875 9.10938 9.42708 9.10938 9.34375L9.07812 6.71875C9.07812 5.96875 8.84375 5.35938 8.375 4.89062C7.90625 4.42188 7.34896 4.1875 6.70312 4.1875C6.04688 4.1875 5.48438 4.4375 5.01562 4.9375C4.54688 5.4375 4.3125 6.03125 4.3125 6.71875C4.3125 7.41667 4.45833 8 4.75 8.46875C5.05208 8.9375 5.59896 9.38542 6.39062 9.8125C6.47396 9.85417 6.66667 9.95833 6.96875 10.125C7.27083 10.2917 7.60417 10.4792 7.96875 10.6875C8.34375 10.8854 8.68229 11.0677 8.98438 11.2344C9.28646 11.3906 9.46875 11.4844 9.53125 11.5156C10.5938 12.1094 11.4323 12.8385 12.0469 13.7031C12.6719 14.5677 12.9844 15.6302 12.9844 16.8906C12.9844 18.1094 12.7031 19.2031 12.1406 20.1719C11.5677 21.1406 10.8073 21.9062 9.85938 22.4688C8.91146 23.0312 7.85938 23.3125 6.70312 23.3125ZM22.0312 23H18.4219C18.3281 23 18.2812 22.9479 18.2812 22.8438V4.59375H14.125C14.0208 4.59375 13.9688 4.54167 13.9688 4.4375L14 0.859375C14 0.776042 14.0417 0.734375 14.125 0.734375H26.2812C26.3958 0.734375 26.4531 0.776042 26.4531 0.859375V4.4375C26.4531 4.54167 26.4115 4.59375 26.3281 4.59375H22.125L22.1562 22.8438C22.1562 22.9479 22.1146 23 22.0312 23ZM26.9375 22.8438L30.9062 0.859375C30.9271 0.776042 30.9792 0.734375 31.0625 0.734375H35.7031C35.7865 0.734375 35.8385 0.776042 35.8594 0.859375L39.6719 22.8438C39.6823 22.9479 39.6406 23 39.5469 23H36C35.8958 23 35.8385 22.9479 35.8281 22.8438L35.4844 20.5H31.125L30.7812 22.8438C30.7708 22.9479 30.7188 23 30.625 23H27.0625C26.9792 23 26.9375 22.9479 26.9375 22.8438ZM33.2031 8.09375L31.7656 17.0781H34.8438L33.5312 8.09375L33.3438 6.90625L33.2031 8.09375ZM45.4219 23H41.7969C41.7135 23 41.6719 22.9479 41.6719 22.8438L41.7344 0.859375C41.7344 0.776042 41.776 0.734375 41.8594 0.734375H48.3281C49.4844 0.734375 50.5469 1.01562 51.5156 1.57812C52.4844 2.14062 53.2552 2.89583 53.8281 3.84375C54.4115 4.79167 54.7031 5.86458 54.7031 7.0625C54.7031 7.84375 54.5833 8.55208 54.3438 9.1875C54.1042 9.82292 53.8229 10.3594 53.5 10.7969C53.1875 11.2344 52.901 11.5573 52.6406 11.7656C53.7969 13.0469 54.375 14.5521 54.375 16.2812L54.4062 22.8438C54.4062 22.9479 54.3542 23 54.25 23H50.625C50.5417 23 50.5 22.9688 50.5 22.9062V16.2812C50.5 15.5104 50.2292 14.8438 49.6875 14.2812C49.1458 13.7188 48.4792 13.4375 47.6875 13.4375H45.5781L45.5469 22.8438C45.5469 22.9479 45.5052 23 45.4219 23ZM48.3281 4.5625H45.5781V9.59375H48.3281C48.9844 9.59375 49.5677 9.34896 50.0781 8.85938C50.599 8.36979 50.8594 7.77083 50.8594 7.0625C50.8594 6.38542 50.6094 5.80208 50.1094 5.3125C49.6094 4.8125 49.0156 4.5625 48.3281 4.5625ZM63.9375 23H60.3281C60.2344 23 60.1875 22.9479 60.1875 22.8438V4.59375H56.0312C55.9271 4.59375 55.875 4.54167 55.875 4.4375L55.9062 0.859375C55.9062 0.776042 55.9479 0.734375 56.0312 0.734375H68.1875C68.3021 0.734375 68.3594 0.776042 68.3594 0.859375V4.4375C68.3594 4.54167 68.3177 4.59375 68.2344 4.59375H64.0312L64.0625 22.8438C64.0625 22.9479 64.0208 23 63.9375 23Z" fill="#F2CF89"/>
<path d="M75.8125 23.3125C74.6875 23.3125 73.6458 23.0208 72.6875 22.4375C71.7292 21.8542 70.9635 21.0729 70.3906 20.0938C69.8281 19.1042 69.5469 18.026 69.5469 16.8594L69.6094 0.859375C69.6094 0.776042 69.651 0.734375 69.7344 0.734375H73.3281C73.4115 0.734375 73.4531 0.776042 73.4531 0.859375V16.8594C73.4531 17.5781 73.6823 18.1927 74.1406 18.7031C74.599 19.2031 75.1562 19.4531 75.8125 19.4531C76.5 19.4531 77.0729 19.2031 77.5312 18.7031C77.9896 18.1927 78.2188 17.5781 78.2188 16.8594V0.859375C78.2188 0.776042 78.2604 0.734375 78.3438 0.734375H81.9375C82.0208 0.734375 82.0625 0.776042 82.0625 0.859375L82.125 16.8594C82.125 18.0365 81.8438 19.1198 81.2812 20.1094C80.7083 21.0885 79.9479 21.8698 79 22.4531C78.0521 23.026 76.9896 23.3125 75.8125 23.3125ZM88.3906 23H84.7969C84.6927 23 84.6406 22.9479 84.6406 22.8438L84.7031 0.859375C84.7031 0.776042 84.7448 0.734375 84.8281 0.734375H90.9844C92.9427 0.734375 94.4896 1.33333 95.625 2.53125C96.7708 3.71875 97.3438 5.33854 97.3438 7.39062C97.3438 8.89062 97.0469 10.1979 96.4531 11.3125C95.849 12.4167 95.0677 13.2708 94.1094 13.875C93.151 14.4792 92.1094 14.7812 90.9844 14.7812H88.5469V22.8438C88.5469 22.9479 88.4948 23 88.3906 23ZM90.9844 4.53125L88.5469 4.5625V10.9062H90.9844C91.6615 10.9062 92.25 10.5833 92.75 9.9375C93.25 9.28125 93.5 8.43229 93.5 7.39062C93.5 6.55729 93.276 5.875 92.8281 5.34375C92.3802 4.80208 91.7656 4.53125 90.9844 4.53125Z" fill="white" fill-opacity="0.56"/>
<path d="M102.125 23H98.5312C98.4583 23 98.4271 22.9479 98.4375 22.8438L102.094 11.4219L98.5 0.859375C98.4792 0.776042 98.5104 0.734375 98.5938 0.734375H102.188C102.292 0.734375 102.354 0.776042 102.375 0.859375L104.516 8.46875L106.688 0.859375C106.708 0.776042 106.776 0.734375 106.891 0.734375H110.438C110.521 0.734375 110.552 0.776042 110.531 0.859375L106.953 11.3906L110.562 22.8438C110.604 22.9479 110.573 23 110.469 23H106.891C106.797 23 106.729 22.9479 106.688 22.8438L104.516 14.5781L102.312 22.8438C102.302 22.9479 102.24 23 102.125 23ZM118.344 23.3125C117.188 23.3125 116.13 23.0208 115.172 22.4375C114.224 21.8542 113.469 21.0729 112.906 20.0938C112.354 19.1042 112.078 18.0052 112.078 16.7969L112.109 6.8125C112.109 5.625 112.38 4.55208 112.922 3.59375C113.464 2.625 114.208 1.84896 115.156 1.26562C116.115 0.671875 117.177 0.375 118.344 0.375C119.531 0.375 120.589 0.661458 121.516 1.23438C122.453 1.80729 123.198 2.58333 123.75 3.5625C124.312 4.53125 124.594 5.61458 124.594 6.8125V8.28125C124.594 8.36458 124.552 8.40625 124.469 8.40625H120.875C120.792 8.40625 120.75 8.36458 120.75 8.28125V6.8125C120.75 6.10417 120.521 5.49479 120.062 4.98438C119.604 4.47396 119.031 4.21875 118.344 4.21875C117.583 4.21875 117 4.47917 116.594 5C116.188 5.52083 115.984 6.125 115.984 6.8125V16.7969C115.984 17.5781 116.214 18.2188 116.672 18.7188C117.13 19.2083 117.688 19.4531 118.344 19.4531C119.031 19.4531 119.604 19.1823 120.062 18.6406C120.521 18.0885 120.75 17.474 120.75 16.7969V15.3125C120.75 15.2292 120.792 15.1875 120.875 15.1875H124.5C124.583 15.1875 124.625 15.2292 124.625 15.3125V16.7969C124.625 17.9948 124.344 19.0885 123.781 20.0781C123.208 21.0573 122.453 21.8438 121.516 22.4375C120.578 23.0208 119.521 23.3125 118.344 23.3125ZM137.422 23H127.078C126.995 23 126.953 22.9479 126.953 22.8438L126.984 0.859375C126.984 0.776042 127.026 0.734375 127.109 0.734375H137.391C137.474 0.734375 137.516 0.786458 137.516 0.890625V4.46875C137.516 4.55208 137.474 4.59375 137.391 4.59375H130.828V9.59375H137.391C137.474 9.59375 137.516 9.63542 137.516 9.71875L137.547 13.3438C137.547 13.4271 137.505 13.4688 137.422 13.4688H130.828V19.0625H137.422C137.505 19.0625 137.547 19.1146 137.547 19.2188V22.875C137.547 22.9583 137.505 23 137.422 23ZM150.859 23H140.516C140.432 23 140.391 22.9479 140.391 22.8438L140.422 0.890625C140.422 0.786458 140.474 0.734375 140.578 0.734375H144.141C144.245 0.734375 144.297 0.786458 144.297 0.890625L144.266 19.0625H150.859C150.964 19.0625 151.016 19.1146 151.016 19.2188V22.8438C151.016 22.9479 150.964 23 150.859 23Z" fill="white"/>
</svg>
