<svg width="9" height="8" viewBox="0 0 9 8" fill="none" xmlns="http://www.w3.org/2000/svg">
<path d="M1.17319 6.72397C0.919352 6.97782 0.919352 7.38937 1.17319 7.64321C1.42703 7.89705 1.83859 7.89705 2.09243 7.64321L1.17319 6.72397ZM8.64677 0.819633C8.64677 0.460648 8.35576 0.169633 7.99677 0.169633L2.14677 0.169633C1.78779 0.169633 1.49677 0.460648 1.49677 0.819633C1.49677 1.17862 1.78779 1.46963 2.14677 1.46963L7.34677 1.46963L7.34677 6.66963C7.34677 7.02862 7.63779 7.31963 7.99677 7.31963C8.35576 7.31963 8.64677 7.02862 8.64677 6.66963L8.64677 0.819633ZM2.09243 7.64321L8.45639 1.27925L7.53715 0.360013L1.17319 6.72397L2.09243 7.64321Z" fill="#1C1A1D"/>
</svg>
